<svg viewBox="0 150 1920 480" width="1920px" height="480px" xmlns="http://www.w3.org/2000/svg"
    xmlns:xlink="http://www.w3.org/1999/xlink" xmlns:bx="https://boxy-svg.com">
    <defs>
        <linearGradient id="gradient-1" bx:pinned="true">
            <title>Shadow</title>
        </linearGradient>
        <linearGradient id="gradient-2" bx:pinned="true">
            <title>Background</title>
            <stop offset="0" style="stop-color: rgb(171, 245, 218);"></stop>
            <stop offset="1" style="stop-color: rgb(67, 188, 144);"></stop>
        </linearGradient>
        <radialGradient id="gradient-2-0" gradientUnits="userSpaceOnUse" cx="287.342" cy="-45.637" r="1075.779"
            gradientTransform="matrix(-0.040775, 0.458341, -2.740995, -0.243847, 1031.633362, -207.006277)"
            xlink:href="#gradient-2"></radialGradient>
    </defs>
    <path style="stroke-width: 26px; stroke-opacity: 0; fill-rule: nonzero; fill: url(#gradient-2-0); opacity: 0.45;"
        d="M -263.76 315.256 C -263.76 315.256 64.91228557350225 210.50209631905696 241.66 218.78 C 441.3314339544222 228.1315262897379 689.5691393203655 407.2331959367268 872.354 401.652 C 1015.3977417813254 397.2842687369421 1120.4771801735044 279.6837588240856 1251.058 266.298 C 1383.8391449171445 252.68668721602097 1567.196624658358 362.5359037621248 1662.883 323.896 C 1734.9549667095487 294.792025189993 1801.3664861952911 214.74760142273345 1808.316 138.143 C 1818.0052581258506 31.33815326240301 1731.981279819852 -188.2930236848118 1595.205 -267.921 C 1380.2729411322498 -393.0494573278164 804.9550639979161 -273.46548349613556 463.411 -230.482 C 174.89128892468418 -194.17165663127057 -236.92848622509402 -187.6094207217132 -325.677 -56.248 C -386.26497377322227 33.43149968927583 -263.76 315.256 -263.76 315.256 C -263.76000000000005 315.25600000000003 -263.76 315.256 -263.76 315.256 C -263.76 315.256 -263.76 315.2559999999999 -263.76 315.256"
        transform="matrix(0.927184, -0.374607, 0.374607, 0.927184, 38.715169, 277.543803)"
        bx:d="M -263.76 315.256 R 241.66 218.78 R 872.354 401.652 R 1251.058 266.298 R 1662.883 323.896 R 1808.316 138.143 R 1595.205 -267.921 R 463.411 -230.482 R -325.677 -56.248 R -263.76 315.256 R -263.76 315.256 Z 1@738dbf03">
    </path>
</svg>